# xmcd
#
# Track frame offsets:
#	150
#	21323
#	35978
#	47675
#	61048
#	76157
#	91500
#	110247
#	120786
#	133232
#	152090
#	168835
#	183478
#	196706
#	216650
#
# Disc length: 3140
#
# Revision: 4
# Processed by: cddbd v1.5.1PL0 Copyright (c) Steve Scherf et al.
# Submitted via: CDex 1.50
# Normalized: r3:TDELIM( - )
#
DISCID=c60c420f
DTITLE=Various Artist - Jazz Harmony
DYEAR=1900
DGENRE=Jazz
TTITLE0=Duke Ellington and His Orchestra - Take The A Train
TTITLE1=Ella Fitzgerald - How High The Moon
TTITLE2=Dave Brubeck Trio - Singing In The Rain
TTITLE3=Sidney Bechet and His Circle Seven - September Song
TTITLE4=Lena Horne and Orchestra - Stormy Weather
TTITLE5=Roy Eldridge Quartet - But Not For Me
TTITLE6=Gerry Mulligan and The Concert Jazz Band - Come Rain Or Come Shine
TTITLE7=Fats Domino - Careless Love
TTITLE8=Django Reinhardt and The Hot Club Quintet - Swing 42
TTITLE9=Oscar Peterson Trio - I Concentrate On You
TTITLE10=Peggy Lee and The Four Of A Kind - Lover Come Back To Me
TTITLE11=Benny Goodman and His Orchestra - Blue Skies
TTITLE12=Don Byas Quartet - Body And Soul
TTITLE13=Irene Reid and Count Basie and His Orchestra - The Blues
TTITLE14=Kid Ory and His Band - Sweet Georgia Brown
EXTD=
EXTT0=
EXTT1=
EXTT2=
EXTT3=
EXTT4=
EXTT5=
EXTT6=
EXTT7=
EXTT8=
EXTT9=
EXTT10=
EXTT11=
EXTT12=
EXTT13=
EXTT14=
PLAYORDER=
